<?xml version="1.0" encoding="UTF-8" standalone="no"?>
<!-- Created with Inkscape (http://www.inkscape.org/) -->

<svg
   xmlns:dc="http://purl.org/dc/elements/1.1/"
   xmlns:cc="http://creativecommons.org/ns#"
   xmlns:rdf="http://www.w3.org/1999/02/22-rdf-syntax-ns#"
   xmlns:svg="http://www.w3.org/2000/svg"
   xmlns="http://www.w3.org/2000/svg"
   xmlns:sodipodi="http://sodipodi.sourceforge.net/DTD/sodipodi-0.dtd"
   xmlns:inkscape="http://www.inkscape.org/namespaces/inkscape"
   width="224mm"
   height="30mm"
   viewBox="0 0 793.70101 106.29918"
   id="svg2"
   version="1.1"
   inkscape:version="0.91 r13725"
   sodipodi:docname="project-hockey-light.svg">
  <defs
     id="defs4" />
  <sodipodi:namedview
     id="base"
     pagecolor="#ffffff"
     bordercolor="#666666"
     borderopacity="1.0"
     inkscape:pageopacity="0.0"
     inkscape:pageshadow="2"
     inkscape:zoom="1.4"
     inkscape:cx="328.98315"
     inkscape:cy="25.040968"
     inkscape:document-units="px"
     inkscape:current-layer="layer2"
     showgrid="false"
     showborder="true"
     inkscape:window-width="1920"
     inkscape:window-height="1017"
     inkscape:window-x="2936"
     inkscape:window-y="-8"
     inkscape:window-maximized="1" />
  <metadata
     id="metadata7">
    <rdf:RDF>
      <cc:Work
         rdf:about="">
        <dc:format>image/svg+xml</dc:format>
        <dc:type
           rdf:resource="http://purl.org/dc/dcmitype/StillImage" />
        <dc:title></dc:title>
      </cc:Work>
    </rdf:RDF>
  </metadata>
  <g
     inkscape:groupmode="layer"
     id="layer6"
     inkscape:label="Layer 3" />
  <g
     inkscape:groupmode="layer"
     id="layer2"
     inkscape:label="Layer 2"
     transform="translate(0,-946.06302)"
     style="display:inline">
    <text
       xml:space="preserve"
       style="font-style:normal;font-weight:normal;font-size:40px;line-height:125.99999905%;font-family:sans-serif;letter-spacing:0px;word-spacing:0px;fill:#eeeeee;fill-opacity:1;stroke:none;stroke-width:2;stroke-linecap:butt;stroke-linejoin:miter;stroke-miterlimit:4;stroke-dasharray:none;stroke-opacity:1;"
       x="4.2857108"
       y="1028.0765"
       id="text4137"
       sodipodi:linespacing="126%"><tspan
         sodipodi:role="line"
         id="tspan4139"
         x="4.2857108"
         y="1028.0765"
         style="font-style:italic;font-variant:normal;font-weight:bold;font-stretch:normal;font-size:90px;line-height:125.99999905%;font-family:Arial;-inkscape-font-specification:'Arial Bold Italic';fill:#eeeeee;fill-opacity:1;stroke:none;stroke-width:2;stroke-miterlimit:4;stroke-dasharray:none;stroke-opacity:1;">Project      Hockey</tspan></text>
    <flowRoot
       xml:space="preserve"
       id="flowRoot4172"
       style="font-style:normal;font-weight:normal;font-size:40px;line-height:125%;font-family:sans-serif;letter-spacing:0px;word-spacing:0px;fill:#000000;fill-opacity:1;stroke:none;stroke-width:1px;stroke-linecap:butt;stroke-linejoin:miter;stroke-opacity:1"
       transform="translate(0,910.62992)"><flowRegion
         id="flowRegion4174"><rect
           id="rect4176"
           width="85.714287"
           height="48.57143"
           x="854.28571"
           y="213.16086" /></flowRegion><flowPara
         id="flowPara4178"></flowPara></flowRoot>  </g>
  <g
     inkscape:label="Layer 1"
     inkscape:groupmode="layer"
     id="layer1"
     transform="translate(0,-946.06302)"
     style="display:inline">
    <g
       id="g4299"
       transform="matrix(0.1677143,0,0,0.1677143,233.62336,814.80687)">
      <path
         style="fill:#a0a0a0"
         d="m 907.85706,1397.1071 c -31.90056,-3.9639 -41.27846,-5.4759 -57.95451,-9.344 -119.79419,-27.7875 -206.60718,-103.0775 -224.15257,-194.4 -3.3757,-17.5704 -3.42915,-151.9128 -0.0675,-169.6923 31.21575,-165.09867 274.20163,-254.91416 471.54962,-174.30011 90.1303,36.81705 152.9443,106.8683 162.6898,181.43431 2.6329,20.1454 1.7158,155.4967 -1.1324,167.1198 -5.5533,22.6623 -16.1121,49.123 -24.6014,61.6519 -1.2045,1.7776 -3.8134,5.7632 -5.7976,8.857 -17.441,27.1936 -48.6988,55.6084 -87.1957,79.2647 -18.948,11.6435 -60.3332,29.0939 -83.3377,35.14 -49.2035,12.9318 -112.3882,18.9423 -150.00003,14.2687 z"
         id="path4313"
         inkscape:connector-curvature="0" />
      <path
         style="fill:#7da100"
         d="m 922.85706,1397.5535 c -155.12981,-9.4246 -273.36055,-91.5125 -296.5679,-205.9079 -3.88613,-19.1558 -4.26793,-138.9977 -0.51997,-163.2119 24.15088,-156.03028 242.43185,-250.57891 438.96291,-190.13727 102.9092,31.64895 174.1328,99.20511 193.2112,183.26217 3.386,14.9183 5.2445,136.3066 2.4678,161.1827 -14.0956,126.2814 -169.277,225.0356 -337.55404,214.8122 z"
         id="path4311"
         inkscape:connector-curvature="0" />
      <path
         style="fill:#535353"
         d="m 922.85706,1397.5535 c -155.12981,-9.4246 -273.36055,-91.5125 -296.5679,-205.9079 -3.88613,-19.1558 -4.26793,-138.9977 -0.51997,-163.2119 24.15088,-156.03028 242.43185,-250.57891 438.96291,-190.13727 102.9092,31.64895 174.1328,99.20511 193.2112,183.26217 3.386,14.9183 5.2445,136.3066 2.4678,161.1827 -14.0956,126.2814 -169.277,225.0356 -337.55404,214.8122 z m -42.8085,-201.4906 c 6.34453,-3.2748 9.94945,-7.3149 37.20067,-41.6917 12.94364,-16.3282 23.90467,-29.6875 24.35783,-29.6875 0.45316,0 11.41419,13.3593 24.35783,29.6875 43.15591,54.4403 36.76391,53.0271 110.51741,24.4343 8.206,-3.1813 10.4862,-3.2228 21.3748,-0.389 34.3936,8.9511 58.2336,-36.8029 31.8485,-61.1238 -17.5064,-16.1368 -42.3469,-11.9649 -56.8485,9.5474 -2.1084,3.1276 -49.7326,21.1636 -51.3343,19.441 -2.875,-3.0921 -48.66119,-61.0719 -48.63936,-61.5928 0.0145,-0.3463 11.96763,-15.603 26.5625,-33.9038 14.59486,-18.3008 37.08456,-46.5412 49.97706,-62.7565 21.5863,-27.14983 23.8115,-29.54979 28.125,-30.33483 42.861,-7.80041 37.5731,-70.97307 -5.9409,-70.97307 -19.9795,0 -33.9361,13.23144 -35.8892,34.02447 -0.6962,7.4125 -1.2552,8.56675 -8.4748,17.5 -4.2511,5.26024 -17.7749,22.22033 -30.05286,37.68908 -45.99699,57.95065 -54.72808,68.75005 -55.58318,68.75005 -0.8551,0 -9.58619,-10.7994 -55.58317,-68.75005 -12.27797,-15.46875 -25.80178,-32.42884 -30.05292,-37.68908 -7.21953,-8.93325 -7.77851,-10.0875 -8.47477,-17.5 -1.95309,-20.79303 -15.90966,-34.02447 -35.88914,-34.02447 -43.514,0 -48.80198,63.17266 -5.94091,70.97307 4.3135,0.78504 6.53864,3.185 28.125,30.33483 12.8925,16.2153 35.38216,44.4557 49.97704,62.7565 14.59486,18.3008 26.54798,33.5575 26.5625,33.9038 0.0219,0.5209 -45.76437,58.5007 -48.63938,61.5928 -1.60165,1.7226 -49.22591,-16.3134 -51.33425,-19.441 -14.50161,-21.5123 -39.34219,-25.6842 -56.84851,-9.5474 -26.3591,24.2969 -2.54725,70.0068 31.84851,61.1372 10.3891,-2.679 12.3773,-2.7735 17.76251,-0.8439 2.94937,1.0568 11.83124,4.2648 19.73749,7.129 46.94779,17.0077 46.42669,16.9043 57.1915,11.3479 z m -114.44484,-30.2934 c -14.95212,-7.4012 -17.93329,-27.215 -5.90456,-39.2437 19.45406,-19.4541 51.07148,2.5591 39.54535,27.5329 -5.86984,12.7182 -20.97941,17.978 -33.64079,11.7108 z m 330.37838,0.3016 c -21.3476,-9.8525 -18.1841,-40.2623 4.8377,-46.5032 12.0988,-3.2799 26.3772,5.6931 29.4515,18.5082 4.7982,20.0014 -15.5729,36.6331 -34.2892,27.995 z m -295.00004,-221.25 c -25.00209,-11.53921 -14.67745,-50.39186 12.57476,-47.32014 24.15438,2.72255 30.74403,35.06615 9.41453,46.2088 -7.84609,4.09885 -14.75919,4.44824 -21.98929,1.11134 z m 259.26074,-1.11134 c -21.3295,-11.14265 -14.7399,-43.48625 9.4145,-46.2088 27.7849,-3.13176 37.5667,36.92368 11.6603,47.74803 -6.9272,2.89441 -13.5079,2.41378 -21.0748,-1.53923 z"
         id="path4309"
         inkscape:connector-curvature="0" />
      <path
         style="fill:#516900"
         d="m 934.10706,1397.6064 c -149.87336,-5.3578 -272.56181,-81.1975 -302.99793,-187.2977 -10.10301,-35.2191 -12.02196,-147.5905 -3.25503,-190.6106 32.63355,-160.1355 270.01435,-247.9803 463.753,-171.61569 94.1577,37.1135 155.7205,104.76808 167.5786,184.16079 1.858,12.4401 1.7728,145.1978 -0.1009,157.0277 -19.1995,121.2236 -164.0569,214.0882 -324.97774,208.3355 z m 40.06264,-35.4949 c 26.4289,-2.0784 75.2094,-10.8299 89.9374,-16.1353 6.5019,-2.3421 26.953,-10.4568 28.75,-11.4074 1.0312,-0.5456 7.2187,-3.464 13.75,-6.4852 75.2772,-34.8223 124.4908,-96.8696 127.1241,-160.2749 l 0.7267,-17.5 -5.9618,8.75 c -72.437,106.3127 -233.67065,156.6139 -384.33583,119.9039 -9.93947,-2.4218 -18.65822,-4.8437 -19.375,-5.3821 -0.71676,-0.5384 -8.33446,-3.3989 -16.92821,-6.3567 -32.63615,-11.2325 -68.54318,-29.5519 -86.2223,-43.9899 -2.39102,-1.9526 -4.85965,-3.5502 -5.48586,-3.5502 -1.58218,0 -17.30512,-12.7936 -26.85144,-21.8487 -10.674,-10.1248 -24.82831,-27.0771 -32.24096,-38.6142 -7.59771,-11.8252 -7.94944,-11.798 -7.94944,0.6149 0,121.8721 151.18514,215.9496 325.06264,202.2758 z m 81.962,-121.065 c 9.6,-3.1177 30.2447,-11.1518 34.2254,-13.3191 1.7187,-0.9358 7.625,-3.7736 13.125,-6.3061 5.5,-2.5326 10.2812,-4.9759 10.625,-5.4296 0.3437,-0.4538 2.5278,-1.5954 4.8535,-2.537 2.3257,-0.9415 5.7052,-2.8783 7.5099,-4.304 1.8047,-1.4256 4.2256,-3.1545 5.3797,-3.842 6.0542,-3.6065 22.2096,-15.1139 22.2315,-15.8355 0.014,-0.4595 -2.5059,-3.8008 -5.5996,-7.4253 -7.2549,-8.4993 -7.8585,-6.8892 9.1285,-24.3517 28.2456,-29.0362 43.549,-57.8918 49.3287,-93.0125 l 1.5428,-9.375 9.375,-0.625 9.375,-0.625 0.067,-13.75 c 0.069,-14.0367 -3.6821,-35.3079 -7.6928,-43.6296 -0.9621,-1.99625 -1.7493,-4.12163 -1.7493,-4.72306 0,-0.60144 -1.9944,-5.29627 -4.4319,-10.43295 l -4.432,-9.33944 -6.7367,0 c -9.5455,0 -12.1901,-1.39644 -16.9613,-8.95605 -17.6037,-27.89176 -43.9569,-53.23518 -73.5882,-70.76859 -14.2808,-8.45022 -14.362,-8.54533 -11.145,-13.0632 3.72,-5.22421 2.7004,-6.21484 -13.5289,-13.14519 -40.5479,-17.31505 -71.8765,-24.57605 -76.8737,-17.81697 -3.2422,4.38534 -5.0491,4.53772 -21.67734,1.82815 -27.5664,-4.49195 -75.8593,-3.61535 -106.64155,1.93571 l -13.33617,2.40496 -4.67792,-4.56785 -4.6779,-4.56785 -9.23875,2.17803 c -22.96732,5.41456 -70.7353,23.42678 -76.87657,28.98841 -0.24688,0.22358 0.64526,1.98576 1.98254,3.91597 1.33727,1.93021 2.83421,4.20632 3.32652,5.05803 0.59561,1.03043 -2.78622,3.91687 -10.10755,8.6269 -30.08824,19.35668 -55.00477,44.18145 -70.3963,70.13704 l -5.37401,9.0625 -8.86617,0.0191 c -10.16948,0.022 -10.78489,0.3059 -13.50485,6.23087 -9.4546,20.59528 -14.1623,40.03338 -14.60709,60.31248 l -0.29472,13.4375 10.00897,0 c 11.57747,0 10.91082,-0.5955 12.73678,11.3787 4.89531,32.1023 21.15733,62.7244 48.50324,91.3337 14.51997,15.1908 14.06946,12.9144 4.74721,23.9865 -5.37593,6.3851 -5.2492,7.0903 2.08687,11.6125 2.86408,1.7655 5.76992,3.8521 6.45742,4.6368 0.6875,0.7848 4.90625,3.8059 9.375,6.7137 4.46875,2.9077 8.73588,5.7969 9.48251,6.4203 3.86772,3.2293 41.29933,21.1594 53.01749,25.3958 22.67739,8.1985 19.74312,8.5497 28.21038,-3.3768 3.71023,-5.2261 5.52728,-6.7933 7.41462,-6.3954 1.375,0.2899 8.6875,1.9593 16.25,3.7097 51.28979,11.8713 114.09066,11.933 159.57324,0.1567 8.8445,-2.29 9.2712,-2.1009 15.7362,6.9745 5.947,8.3484 6.6244,8.5463 17.3402,5.0662 z M 856.60706,1202.884 c -2.40625,-0.919 -15.0625,-5.4733 -28.125,-10.1208 -13.0625,-4.6475 -25.25072,-9.201 -27.08495,-10.1188 -2.81911,-1.4108 -4.02129,-1.3821 -7.77235,0.1852 -34.39221,14.37 -70.37558,-24.5993 -53.66983,-58.1234 13.28781,-26.6651 53.85151,-31.3448 70.62373,-8.1475 6.04006,8.3538 6.76399,8.9766 13.06619,11.2405 11.78495,4.2336 19.89696,7.2504 25.69394,9.5555 8.51992,3.388 9.90311,3.0228 15.41792,-4.0702 2.73645,-3.5196 9.47535,-11.911 14.97535,-18.6477 23.5199,-28.8084 23.48438,-28.7587 22.3379,-31.2337 -0.99191,-2.1412 -4.45028,-6.5431 -25.4629,-32.4103 -3.78125,-4.6548 -9.96875,-12.5363 -13.75,-17.5144 -3.78125,-4.9781 -12.51115,-15.8841 -19.39978,-24.2354 -6.88862,-8.3514 -16.57499,-20.5281 -21.52527,-27.05935 -12.41157,-16.37549 -14.80256,-18.75 -18.8801,-18.75 -23.26655,0 -41.08651,-36.41928 -29.34698,-59.97744 18.60697,-37.33931 79.15213,-26.28589 79.15213,14.45039 0,7.62516 0.108,7.86516 7.8125,17.35284 18.94131,23.32536 21.97406,27.11821 29.0625,36.3465 4.125,5.37025 11.71875,14.9408 16.875,21.2679 5.15625,6.32708 13.875,17.28296 19.375,24.34636 5.5,7.0634 11.26563,14.3042 12.8125,16.0905 l 2.8125,3.248 2.8125,-3.248 c 1.54688,-1.7863 7.3125,-9.0271 12.8125,-16.0905 5.5,-7.0634 14.21875,-18.01928 19.375,-24.34636 5.15625,-6.3271 12.75,-15.89765 16.875,-21.2679 7.08844,-9.22829 10.12114,-13.02114 29.06254,-36.3465 7.7044,-9.48768 7.8125,-9.72768 7.8125,-17.35284 0,-40.73628 60.5451,-51.7897 79.1521,-14.45039 11.6808,23.44035 -6.0731,59.97744 -29.1439,59.97744 -3.8487,0 -8.6041,4.7272 -20.1191,20 -4.4059,5.84375 -13.6365,17.45795 -20.5124,25.80935 -6.876,8.3513 -15.5955,19.2573 -19.3767,24.2354 -3.7813,4.9781 -9.9688,12.8596 -13.75,17.5144 -21.01266,25.8672 -24.47103,30.2691 -25.46294,32.4103 -1.14647,2.4749 -1.182,2.4253 22.33794,31.2337 5.5,6.7367 12.2389,15.1281 14.9753,18.6477 6.0274,7.7523 5.3066,7.7301 24.4961,0.7538 22.7959,-8.2874 23.8052,-8.8455 28.6536,-15.8439 13.6899,-19.7607 46.2918,-22.2189 63.7071,-4.8036 15.6768,15.6768 15.6973,44.3884 0.043,60.0429 -10.5018,10.5017 -32.3793,14.9899 -45.7783,9.3915 -3.2684,-1.3656 -5.0962,-1.5115 -6.8925,-0.5501 -2.8099,1.5038 -19.0592,7.5063 -44.1212,16.2984 -34.6286,12.1482 -39.33708,9.3549 -84.45803,-50.1061 -3.78125,-4.983 -8.14062,-10.5447 -9.6875,-12.3594 l -2.81251,-3.2993 -2.8125,3.2993 c -1.54687,1.8147 -5.90625,7.3764 -9.6875,12.3594 -40.37593,53.2079 -52.27639,62.1401 -72.5,54.4166 z m 23.4415,-6.8211 c 6.34453,-3.2748 9.94945,-7.3149 37.20067,-41.6917 12.94364,-16.3282 23.90467,-29.6875 24.35783,-29.6875 0.45316,0 11.41419,13.3593 24.35783,29.6875 43.15591,54.4403 36.76391,53.0271 110.51741,24.4343 8.206,-3.1813 10.4862,-3.2228 21.3748,-0.389 34.3936,8.9511 58.2336,-36.8029 31.8485,-61.1238 -17.5064,-16.1368 -42.3469,-11.9649 -56.8485,9.5474 -2.1084,3.1276 -49.7326,21.1636 -51.3343,19.441 -2.875,-3.0921 -48.66119,-61.0719 -48.63936,-61.5928 0.0145,-0.3463 11.96763,-15.603 26.5625,-33.9038 14.59486,-18.3008 37.08456,-46.5412 49.97706,-62.7565 21.5863,-27.14983 23.8115,-29.54979 28.125,-30.33483 42.861,-7.80041 37.5731,-70.97307 -5.9409,-70.97307 -19.9795,0 -33.9361,13.23144 -35.8892,34.02447 -0.6962,7.4125 -1.2552,8.56675 -8.4748,17.5 -4.2511,5.26024 -17.7749,22.22033 -30.05286,37.68908 -45.99699,57.95065 -54.72808,68.75005 -55.58318,68.75005 -0.8551,0 -9.58619,-10.7994 -55.58317,-68.75005 -12.27797,-15.46875 -25.80178,-32.42884 -30.05292,-37.68908 -7.21953,-8.93325 -7.77851,-10.0875 -8.47477,-17.5 -1.95309,-20.79303 -15.90966,-34.02447 -35.88914,-34.02447 -43.514,0 -48.80198,63.17266 -5.94091,70.97307 4.3135,0.78504 6.53864,3.185 28.125,30.33483 12.8925,16.2153 35.38216,44.4557 49.97704,62.7565 14.59486,18.3008 26.54798,33.5575 26.5625,33.9038 0.0219,0.5209 -45.76437,58.5007 -48.63938,61.5928 -1.60165,1.7226 -49.22591,-16.3134 -51.33425,-19.441 -14.50161,-21.5123 -39.34219,-25.6842 -56.84851,-9.5474 -26.3591,24.2969 -2.54725,70.0068 31.84851,61.1372 10.3891,-2.679 12.3773,-2.7735 17.76251,-0.8439 2.94937,1.0568 11.83124,4.2648 19.73749,7.129 46.94779,17.0077 46.42669,16.9043 57.1915,11.3479 z m -114.44484,-30.2934 c -14.95212,-7.4012 -17.93329,-27.215 -5.90456,-39.2437 19.45406,-19.4541 51.07148,2.5591 39.54535,27.5329 -5.86984,12.7182 -20.97941,17.978 -33.64079,11.7108 z m 19.78631,-6.1027 c 12.88992,-6.5759 12.88992,-25.8904 0,-32.4663 -16.62419,-8.4811 -33.49923,8.3879 -25.01919,25.0102 4.61961,9.0551 15.51828,12.3031 25.01919,7.4561 z m 310.59207,6.4043 c -21.3476,-9.8525 -18.1841,-40.2623 4.8377,-46.5032 12.0988,-3.2799 26.3772,5.6931 29.4515,18.5082 4.7982,20.0014 -15.5729,36.6331 -34.2892,27.995 z m 19.4079,-6.4043 c 5.5454,-2.829 9.9671,-10.0305 9.9671,-16.2331 0,-6.2027 -4.4217,-13.4042 -9.9671,-16.2332 -16.6242,-8.4811 -33.4992,8.3879 -25.0192,25.0102 4.6196,9.0551 15.5183,12.3031 25.0192,7.4561 z M 800.98206,944.8211 c -25.00209,-11.53921 -14.67745,-50.39186 12.57476,-47.32014 24.15438,2.72255 30.74403,35.06615 9.41453,46.2088 -7.84609,4.09885 -14.75919,4.44824 -21.98929,1.11134 z m 19.40797,-6.40427 c 12.88992,-6.57594 12.88992,-25.89042 0,-32.46636 -16.62419,-8.48103 -33.49923,8.38792 -25.0192,25.01018 4.61962,9.05517 15.51829,12.30319 25.0192,7.45618 z m 239.85277,5.29293 c -21.3295,-11.14265 -14.7399,-43.48625 9.4145,-46.2088 27.7849,-3.13176 37.5667,36.92368 11.6603,47.74803 -6.9272,2.89441 -13.5079,2.41378 -21.0748,-1.53923 z m 20.1472,-5.29293 c 16.6829,-8.51098 10.0367,-34.98318 -8.7829,-34.98318 -6.2027,0 -13.4042,4.42165 -16.2332,9.96702 -8.4843,16.63059 8.3855,33.50045 25.0161,25.01615 z"
         id="path4307"
         inkscape:connector-curvature="0" />
      <path
         style="fill:#2f2f2f"
         d="m 934.10706,1397.6064 c -149.87336,-5.3578 -272.56181,-81.1975 -302.99793,-187.2977 -10.10301,-35.2191 -12.02196,-147.5905 -3.25503,-190.6106 32.63355,-160.1355 270.01435,-247.9803 463.753,-171.61569 94.1577,37.1135 155.7205,104.76808 167.5786,184.16079 1.858,12.4401 1.7728,145.1978 -0.1009,157.0277 -19.1995,121.2236 -164.0569,214.0882 -324.97774,208.3355 z m 40.06264,-35.4949 c 26.4289,-2.0784 75.2094,-10.8299 89.9374,-16.1353 6.5019,-2.3421 26.953,-10.4568 28.75,-11.4074 1.0312,-0.5456 7.2187,-3.464 13.75,-6.4852 75.2772,-34.8223 124.4908,-96.8696 127.1241,-160.2749 l 0.7267,-17.5 -5.9618,8.75 c -72.437,106.3127 -233.67065,156.6139 -384.33583,119.9039 -9.93947,-2.4218 -18.65822,-4.8437 -19.375,-5.3821 -0.71676,-0.5384 -8.33446,-3.3989 -16.92821,-6.3567 -32.63615,-11.2325 -68.54318,-29.5519 -86.2223,-43.9899 -2.39102,-1.9526 -4.85965,-3.5502 -5.48586,-3.5502 -1.58218,0 -17.30512,-12.7936 -26.85144,-21.8487 -10.674,-10.1248 -24.82831,-27.0771 -32.24096,-38.6142 -7.59771,-11.8252 -7.94944,-11.798 -7.94944,0.6149 0,121.8721 151.18514,215.9496 325.06264,202.2758 z m 81.962,-121.065 c 9.6,-3.1177 30.2447,-11.1518 34.2254,-13.3191 1.7187,-0.9358 7.625,-3.7736 13.125,-6.3061 5.5,-2.5326 10.2812,-4.9759 10.625,-5.4296 0.3437,-0.4538 2.5278,-1.5954 4.8535,-2.537 2.3257,-0.9415 5.7052,-2.8783 7.5099,-4.304 1.8047,-1.4256 4.2256,-3.1545 5.3797,-3.842 6.0542,-3.6065 22.2096,-15.1139 22.2315,-15.8355 0.014,-0.4595 -2.5059,-3.8008 -5.5996,-7.4253 -7.2549,-8.4993 -7.8585,-6.8892 9.1285,-24.3517 28.2456,-29.0362 43.549,-57.8918 49.3287,-93.0125 l 1.5428,-9.375 9.375,-0.625 9.375,-0.625 0.067,-13.75 c 0.069,-14.0367 -3.6821,-35.3079 -7.6928,-43.6296 -0.9621,-1.99625 -1.7493,-4.12163 -1.7493,-4.72306 0,-0.60144 -1.9944,-5.29627 -4.4319,-10.43295 l -4.432,-9.33944 -6.7367,0 c -9.5455,0 -12.1901,-1.39644 -16.9613,-8.95605 -17.6037,-27.89176 -43.9569,-53.23518 -73.5882,-70.76859 -14.2808,-8.45022 -14.362,-8.54533 -11.145,-13.0632 3.72,-5.22421 2.7004,-6.21484 -13.5289,-13.14519 -40.5479,-17.31505 -71.8765,-24.57605 -76.8737,-17.81697 -3.2422,4.38534 -5.0491,4.53772 -21.67734,1.82815 -27.5664,-4.49195 -75.8593,-3.61535 -106.64155,1.93571 l -13.33617,2.40496 -4.67792,-4.56785 -4.6779,-4.56785 -9.23875,2.17803 c -22.96732,5.41456 -70.7353,23.42678 -76.87657,28.98841 -0.24688,0.22358 0.64526,1.98576 1.98254,3.91597 1.33727,1.93021 2.83421,4.20632 3.32652,5.05803 0.59561,1.03043 -2.78622,3.91687 -10.10755,8.6269 -30.08824,19.35668 -55.00477,44.18145 -70.3963,70.13704 l -5.37401,9.0625 -8.86617,0.0191 c -10.16948,0.022 -10.78489,0.3059 -13.50485,6.23087 -9.4546,20.59528 -14.1623,40.03338 -14.60709,60.31248 l -0.29472,13.4375 10.00897,0 c 11.57747,0 10.91082,-0.5955 12.73678,11.3787 4.89531,32.1023 21.15733,62.7244 48.50324,91.3337 14.51997,15.1908 14.06946,12.9144 4.74721,23.9865 -5.37593,6.3851 -5.2492,7.0903 2.08687,11.6125 2.86408,1.7655 5.76992,3.8521 6.45742,4.6368 0.6875,0.7848 4.90625,3.8059 9.375,6.7137 4.46875,2.9077 8.73588,5.7969 9.48251,6.4203 3.86772,3.2293 41.29933,21.1594 53.01749,25.3958 22.67739,8.1985 19.74312,8.5497 28.21038,-3.3768 3.71023,-5.2261 5.52728,-6.7933 7.41462,-6.3954 1.375,0.2899 8.6875,1.9593 16.25,3.7097 51.28979,11.8713 114.09066,11.933 159.57324,0.1567 8.8445,-2.29 9.2712,-2.1009 15.7362,6.9745 5.947,8.3484 6.6244,8.5463 17.3402,5.0662 z M 856.60706,1202.884 c -2.40625,-0.919 -15.0625,-5.4733 -28.125,-10.1208 -13.0625,-4.6475 -25.25072,-9.201 -27.08495,-10.1188 -2.81911,-1.4108 -4.02129,-1.3821 -7.77235,0.1852 -34.39221,14.37 -70.37558,-24.5993 -53.66983,-58.1234 13.28781,-26.6651 53.85151,-31.3448 70.62373,-8.1475 6.04006,8.3538 6.76399,8.9766 13.06619,11.2405 11.78495,4.2336 19.89696,7.2504 25.69394,9.5555 8.51992,3.388 9.90311,3.0228 15.41792,-4.0702 2.73645,-3.5196 9.47535,-11.911 14.97535,-18.6477 23.5199,-28.8084 23.48438,-28.7587 22.3379,-31.2337 -0.99191,-2.1412 -4.45028,-6.5431 -25.4629,-32.4103 -3.78125,-4.6548 -9.96875,-12.5363 -13.75,-17.5144 -3.78125,-4.9781 -12.51115,-15.8841 -19.39978,-24.2354 -6.88862,-8.3514 -16.57499,-20.5281 -21.52527,-27.05935 -12.41157,-16.37549 -14.80256,-18.75 -18.8801,-18.75 -23.26655,0 -41.08651,-36.41928 -29.34698,-59.97744 18.60697,-37.33931 79.15213,-26.28589 79.15213,14.45039 0,7.62516 0.108,7.86516 7.8125,17.35284 18.94131,23.32536 21.97406,27.11821 29.0625,36.3465 4.125,5.37025 11.71875,14.9408 16.875,21.2679 5.15625,6.32708 13.875,17.28296 19.375,24.34636 5.5,7.0634 11.26563,14.3042 12.8125,16.0905 l 2.8125,3.248 2.8125,-3.248 c 1.54688,-1.7863 7.3125,-9.0271 12.8125,-16.0905 5.5,-7.0634 14.21875,-18.01928 19.375,-24.34636 5.15625,-6.3271 12.75,-15.89765 16.875,-21.2679 7.08844,-9.22829 10.12114,-13.02114 29.06254,-36.3465 7.7044,-9.48768 7.8125,-9.72768 7.8125,-17.35284 0,-40.73628 60.5451,-51.7897 79.1521,-14.45039 11.6808,23.44035 -6.0731,59.97744 -29.1439,59.97744 -3.8487,0 -8.6041,4.7272 -20.1191,20 -4.4059,5.84375 -13.6365,17.45795 -20.5124,25.80935 -6.876,8.3513 -15.5955,19.2573 -19.3767,24.2354 -3.7813,4.9781 -9.9688,12.8596 -13.75,17.5144 -21.01266,25.8672 -24.47103,30.2691 -25.46294,32.4103 -1.14647,2.4749 -1.182,2.4253 22.33794,31.2337 5.5,6.7367 12.2389,15.1281 14.9753,18.6477 6.0274,7.7523 5.3066,7.7301 24.4961,0.7538 22.7959,-8.2874 23.8052,-8.8455 28.6536,-15.8439 13.6899,-19.7607 46.2918,-22.2189 63.7071,-4.8036 15.6768,15.6768 15.6973,44.3884 0.043,60.0429 -10.5018,10.5017 -32.3793,14.9899 -45.7783,9.3915 -3.2684,-1.3656 -5.0962,-1.5115 -6.8925,-0.5501 -2.8099,1.5038 -19.0592,7.5063 -44.1212,16.2984 -34.6286,12.1482 -39.33708,9.3549 -84.45803,-50.1061 -3.78125,-4.983 -8.14062,-10.5447 -9.6875,-12.3594 l -2.81251,-3.2993 -2.8125,3.2993 c -1.54687,1.8147 -5.90625,7.3764 -9.6875,12.3594 -40.37593,53.2079 -52.27639,62.1401 -72.5,54.4166 z m 21.875,-5.6188 c 7.9514,-3.7587 25.78128,-24.2612 57.44436,-66.0552 2.71939,-3.5895 5.27568,-6.5263 5.68064,-6.5263 0.40496,0 2.96125,2.9368 5.68064,6.5263 58.3683,77.0437 54.8529,75.2138 107.4444,55.931 l 31.25,-11.4579 5.7927,2.0003 c 44.8995,15.5039 71.3542,-49.3976 27.7532,-68.0872 -16.7738,-7.1901 -33.9703,-1.1107 -47.2959,16.7203 -1.9591,2.6215 -7.611,5.196 -26.1207,11.8983 l -23.6206,8.5529 -24.17399,-30.1045 c -13.29569,-16.5575 -24.18203,-30.8551 -24.19186,-31.7725 -0.01,-0.9174 7.47222,-11.0424 16.6268,-22.5 31.49355,-39.4165 61.41815,-77.10503 70.63165,-88.95705 10.4787,-13.47959 12.0988,-15 15.9839,-15 21.2486,0 37.3767,-30.59703 27.3264,-51.84161 -16.128,-34.09185 -69.3366,-23.34139 -69.3366,14.00902 0,6.77863 -0.2389,7.25676 -9.1584,18.33386 -8.69,10.79217 -58.7424,73.70708 -75.67629,95.12378 -4.34879,5.5 -8.3607,10 -8.91535,10 -0.55465,0 -4.56656,-4.5 -8.91535,-10 -16.93389,-21.4167 -66.98627,-84.33161 -75.67631,-95.12378 -8.91949,-11.0771 -9.15834,-11.55523 -9.15834,-18.33386 0,-38.17006 -54.89549,-48.0298 -70.08746,-12.58837 -8.82389,20.58528 7.68315,50.42096 27.89614,50.42096 4.08051,0 5.60158,1.41145 16.16502,15 9.2135,11.85202 39.1381,49.54055 70.63161,88.95705 9.15458,11.4576 16.63664,21.5826 16.6268,22.5 -0.01,0.9174 -10.89617,15.215 -24.19186,31.7725 l -24.17396,30.1045 -23.62064,-8.5529 c -18.50967,-6.7023 -24.16159,-9.2768 -26.12065,-11.8983 -19.92304,-26.659 -53.24136,-25.8914 -66.21164,1.5255 -13.99593,29.585 15.15901,60.7218 46.66888,49.8414 l 5.79276,-2.0003 30.67212,11.2325 c 39.63864,14.5162 41.12165,14.8196 50.57788,10.3496 z m -111.30171,-31.1039 c -22.16055,-10.4051 -17.41163,-43.2031 6.66845,-46.0551 20.56797,-2.4359 34.6521,19.2304 23.85599,36.6989 -6.09048,9.8545 -20.23165,14.1891 -30.52444,9.3563 z m 18.20968,-6.4945 c 12.88992,-6.5759 12.88992,-25.8904 0,-32.4663 -16.62419,-8.4811 -33.49923,8.3879 -25.01919,25.0102 4.61961,9.0551 15.51828,12.3031 25.01919,7.4561 z m 312.73127,7.3559 c -12.6143,-3.6379 -19.8492,-20.5013 -14.1647,-33.0158 7.7156,-16.9856 33.0706,-19.1987 42.6361,-3.7214 12.1344,19.6338 -6.1171,43.184 -28.4714,36.7372 z m 17.2687,-7.3559 c 5.5454,-2.829 9.9671,-10.0305 9.9671,-16.2331 0,-6.2027 -4.4217,-13.4042 -9.9671,-16.2332 -16.6242,-8.4811 -33.4992,8.3879 -25.0192,25.0102 4.6196,9.0551 15.5183,12.3031 25.0192,7.4561 z M 805.06211,945.9937 c -26.85555,-8.51581 -22.01261,-48.22135 5.86184,-48.05903 30.52787,0.17777 32.69361,44.71429 2.36032,48.53812 -2.64122,0.33295 -6.34118,0.11737 -8.22216,-0.47909 z m 15.32792,-7.57687 c 12.88992,-6.57594 12.88992,-25.89042 0,-32.46636 -16.62419,-8.48103 -33.49923,8.38792 -25.0192,25.01018 4.61962,9.05517 15.51829,12.30319 25.0192,7.45618 z m 244.41427,6.95821 c -26.2341,-9.64648 -20.296,-47.27859 7.4859,-47.44037 12.6293,-0.0735 24.3169,11.58139 24.3169,24.24898 0,15.7497 -17.4448,28.47089 -31.8028,23.19139 z m 15.5857,-6.95821 c 16.6829,-8.51098 10.0367,-34.98318 -8.7829,-34.98318 -6.2027,0 -13.4042,4.42165 -16.2332,9.96702 -8.4843,16.63059 8.3855,33.50045 25.0161,25.01615 z"
         id="path4305"
         inkscape:connector-curvature="0" />
      <path
         style="fill:#394a00"
         d="m 908.48206,1395.9204 c -152.99553,-13.4057 -266.61215,-100.1141 -283.34175,-216.2367 -3.97616,-27.5991 -1.7804,-134.5401 3.28518,-160.0001 29.54298,-148.48463 240.24963,-237.95782 429.83141,-182.52092 106.19,31.05175 179.3233,98.69768 198.6783,183.77092 3.2133,14.1237 4.9255,142.6864 2.1809,163.7501 -7.7704,59.6341 -46.3997,116.2639 -104.384,153.0252 -4.125,2.6151 -9.0989,5.8721 -11.0532,7.2377 -18.5306,12.9489 -66.3096,31.8692 -107.0718,42.4001 -4.5202,1.1678 -40.19955,6.7056 -55.62504,8.6335 -10.13159,1.2664 -57.81401,1.227 -72.5,-0.06 z m 85.58516,-34.9052 c 32.66048,-4.5734 72.70128,-13.7334 82.13518,-18.7896 2.6084,-1.3981 5.6317,-2.5419 6.7184,-2.5419 3.7745,0 47.6382,-22.7247 60.3128,-31.2465 57.8306,-38.8827 88.4213,-86.4459 90.4467,-140.6285 l 0.6542,-17.5 -5.9464,8.75 c -67.0441,98.6546 -218.771,151.1281 -359.28104,124.2544 -26.24914,-5.0204 -32.2237,-6.524 -51.875,-13.0548 -72.95343,-24.2451 -126.84479,-62.0318 -160.08181,-112.2439 -8.24466,-12.4554 -9.05951,-12.3076 -9.19796,1.6693 -0.70418,71.0841 63.12597,148.2602 146.77977,177.4692 3.4375,1.2002 8.90136,3.3904 12.14191,4.867 16.70528,7.6119 65.79185,17.9276 101.99875,21.4353 18.09006,1.7525 64.81012,0.4145 85.1945,-2.44 z m 71.75558,-122.4167 c 3.3498,-0.8404 8.8155,-2.9088 12.1459,-4.5964 3.3304,-1.6877 6.7771,-3.0809 7.6593,-3.096 2.1055,-0.036 21.4614,-9.8352 40.3693,-20.4371 5.7827,-3.2424 20.3407,-13.39 24.9844,-17.4151 l 4.9995,-4.3337 -6.6299,-7.6226 -6.6299,-7.6226 8.3967,-7.8332 c 33.382,-31.1415 50.0713,-61.0799 57.6732,-103.4581 l 1.0091,-5.625 9.3408,-0.625 9.3409,-0.625 0.057,-14.3559 c 0.069,-17.4309 -4.2628,-37.5379 -11.9077,-55.27041 -6.1847,-14.34553 -6.3489,-14.49477 -16.7549,-15.22838 -4.7331,-0.33369 -8.9962,-1.0654 -9.4735,-1.62602 -0.4774,-0.56064 -4.0186,-5.8284 -7.8694,-11.70614 -17.0694,-26.05409 -45.1289,-51.80965 -74.3638,-68.25787 -8.6988,-4.8941 -8.9239,-5.35868 -5.1588,-10.64617 3.3085,-4.6465 3.41,-4.55447 -13.2787,-12.04954 -16.4391,-7.38294 -39.4671,-15.0957 -60,-20.09574 l -15,-3.6527 -4.5785,4.40414 -4.5785,4.40414 -17.29651,-2.2691 c -32.70694,-4.29075 -88.51405,-2.68626 -114.79653,3.30048 -4.72815,1.077 -5.2218,0.90201 -9.07933,-3.21846 -4.86218,-5.19361 -5.19862,-5.21429 -20.06053,-1.23266 -24.95788,6.68641 -72.73514,25.55702 -72.73514,28.72824 0,0.42721 1.26563,3.0663 2.8125,5.86464 1.62233,2.93483 2.27365,5.29103 1.53914,5.56793 -22.05083,8.31289 -62.69691,48.18016 -82.30125,80.72428 -1.89823,3.15116 -2.70811,3.41003 -11.73219,3.75 l -9.6932,0.36519 -3.18738,6.25 c -9.00696,17.66137 -14.75515,41.94805 -14.49672,61.25005 l 0.1841,13.75 9.95828,0.625 9.95829,0.625 0.85321,4.375 c 8.22701,42.1857 20.73381,66.6384 49.05202,95.9043 l 13.57503,14.0293 -6.38592,7.6425 c -7.75727,9.2837 -7.73934,8.714 -0.44841,14.2475 21.59091,16.3864 34.15934,23.6087 69.6875,40.0453 7.33076,3.3915 28.66585,10.6311 31.32988,10.6311 0.73783,0 4.01197,-3.7122 7.27586,-8.2492 4.97891,-6.9211 6.37386,-8.1226 8.6643,-7.4629 48.47532,13.9635 118.95211,16.0804 167.8102,5.0405 7.4933,-1.6931 14.0575,-3.0784 14.587,-3.0784 0.5296,0 3.5497,3.5156 6.7113,7.8125 7.3683,10.014 7.0443,9.8738 15.3284,6.6344 3.8737,-1.5147 9.7839,-3.4416 13.1338,-4.2821 z m -209.21574,-38.3139 c -2.40625,-0.9108 -13.375,-4.8615 -24.375,-8.7793 -11,-3.9177 -23.23487,-8.4689 -27.1886,-10.1137 -6.75559,-2.8104 -7.46126,-2.8767 -11.71515,-1.0993 -33.68979,14.0765 -67.50162,-23.4672 -50.26286,-55.8104 13.57582,-25.4709 49.06484,-27.6076 67.37835,-4.0567 l 5.74147,7.3835 19.2734,7.1104 c 24.23729,8.9418 24.26793,8.9427 30.54804,0.8654 2.73645,-3.5196 9.47535,-11.9008 14.97535,-18.6249 18.8692,-23.0689 24.375,-30.2518 24.375,-31.7996 0,-1.9798 -5.02279,-9.2715 -13.75,-19.961 -15.78411,-19.3332 -20.976,-25.8317 -27.5,-34.4206 -3.78125,-4.9781 -12.50076,-15.8841 -19.3767,-24.2354 -6.87593,-8.35141 -16.10654,-19.9656 -20.51246,-25.80935 -11.90809,-15.79415 -16.21951,-20 -20.50205,-20 -21.87864,0 -38.86524,-34.28314 -27.80303,-56.11336 17.88755,-35.29939 74.25248,-25.26617 74.48854,13.25931 0.0506,8.25502 0.56701,9.33747 9.9557,20.86692 16.60188,20.38737 21.0632,25.96657 28.125,35.17219 4.125,5.37728 11.45008,14.59481 16.27794,20.4834 4.82786,5.88859 9.89036,12.17469 11.25,13.96909 15.18731,20.0435 23.60374,29.8625 25.59706,29.8625 1.99332,0 10.40975,-9.819 25.59706,-29.8625 1.35964,-1.7944 6.42214,-8.0805 11.25,-13.96909 4.82786,-5.88859 12.15294,-15.10612 16.27794,-20.4834 7.06184,-9.20562 11.52314,-14.78482 28.12504,-35.17219 9.3886,-11.52945 9.9051,-12.6119 9.9557,-20.86692 0.236,-38.52548 56.6009,-48.5587 74.4885,-13.25931 11.1056,21.91585 -5.8971,56.11336 -27.899,56.11336 -4.1737,0 -8.5915,4.32985 -20.4061,20 -4.4059,5.84375 -13.6365,17.45794 -20.5124,25.80935 -6.876,8.3513 -15.5955,19.2573 -19.3767,24.2354 -6.524,8.589 -11.7159,15.0874 -27.50004,34.4206 -8.72721,10.6895 -13.75,17.9812 -13.75,19.961 0,1.5478 5.5058,8.7307 24.37504,31.7996 5.5,6.7241 12.2389,15.1053 14.9753,18.6249 6.2801,8.0773 6.3108,8.0764 30.548,-0.8654 l 19.2734,-7.1104 5.7415,-7.3835 c 18.3135,-23.5509 53.8025,-21.4142 67.3784,4.0567 17.2391,32.3439 -16.5731,69.8869 -50.264,55.81 -4.077,-1.7035 -4.9942,-1.6918 -9.2151,0.1184 -6.4713,2.775 -40.217,15.1285 -51.2887,18.7755 -23.4162,7.7133 -32.09464,1.8966 -68.43335,-45.8678 -1.35603,-1.7824 -5.722,-7.548 -9.70219,-12.8125 -9.184,-12.1474 -10.0926,-12.1474 -19.2766,0 -3.98019,5.2645 -8.34616,11.0301 -9.70219,12.8125 -6.29873,8.2792 -28.57505,34.9936 -32.7602,39.287 -8.9854,9.2178 -21.26412,12.084 -32.89931,7.6797 z m 21.875,-3.0194 c 7.9514,-3.7587 25.78128,-24.2612 57.44436,-66.0552 2.71939,-3.5895 5.27568,-6.5263 5.68064,-6.5263 0.40496,0 2.96125,2.9368 5.68064,6.5263 58.3683,77.0437 54.8529,75.2138 107.4444,55.931 l 31.25,-11.4579 5.7927,2.0003 c 44.8995,15.5039 71.3542,-49.3976 27.7532,-68.0872 -16.7738,-7.1901 -33.9703,-1.1107 -47.2959,16.7203 -1.9591,2.6215 -7.611,5.196 -26.1207,11.8983 l -23.6206,8.5529 -24.17399,-30.1045 c -13.29569,-16.5575 -24.18203,-30.8551 -24.19186,-31.7725 -0.01,-0.9174 7.47222,-11.0424 16.6268,-22.5 31.49355,-39.4165 61.41815,-77.10503 70.63165,-88.95705 10.4787,-13.47959 12.0988,-15 15.9839,-15 21.2486,0 37.3767,-30.59703 27.3264,-51.84161 -16.128,-34.09185 -69.3366,-23.34139 -69.3366,14.00902 0,6.77863 -0.2389,7.25676 -9.1584,18.33386 -8.69,10.79217 -58.7424,73.70708 -75.67629,95.12378 -4.34879,5.5 -8.3607,10 -8.91535,10 -0.55465,0 -4.56656,-4.5 -8.91535,-10 -16.93389,-21.4167 -66.98627,-84.33161 -75.67631,-95.12378 -8.91949,-11.0771 -9.15834,-11.55523 -9.15834,-18.33386 0,-38.17006 -54.89549,-48.0298 -70.08746,-12.58837 -8.82389,20.58528 7.68315,50.42096 27.89614,50.42096 4.08051,0 5.60158,1.41145 16.16502,15 9.2135,11.85202 39.1381,49.54055 70.63161,88.95705 9.15458,11.4576 16.63664,21.5826 16.6268,22.5 -0.01,0.9174 -10.89617,15.215 -24.19186,31.7725 l -24.17396,30.1045 -23.62064,-8.5529 c -18.50967,-6.7023 -24.16159,-9.2768 -26.12065,-11.8983 -19.92304,-26.659 -53.24136,-25.8914 -66.21164,1.5255 -13.99593,29.585 15.15901,60.7218 46.66888,49.8414 l 5.79276,-2.0003 30.67212,11.2325 c 39.63864,14.5162 41.12165,14.8196 50.57788,10.3496 z m -111.30171,-31.1039 c -22.16055,-10.4051 -17.41163,-43.2031 6.66845,-46.0551 20.56797,-2.4359 34.6521,19.2304 23.85599,36.6989 -6.09048,9.8545 -20.23165,14.1891 -30.52444,9.3563 z m 17.29889,-3.1664 c 14.10498,-5.8935 17.50168,-23.2663 6.6673,-34.1007 -18.80709,-18.8071 -47.9739,7.9015 -30.43857,27.8731 6.60863,7.5269 15.24599,9.7896 23.77127,6.2276 z m 313.64206,4.0278 c -12.6143,-3.6379 -19.8492,-20.5013 -14.1647,-33.0158 7.7156,-16.9856 33.0706,-19.1987 42.6361,-3.7214 12.1344,19.6338 -6.1171,43.184 -28.4714,36.7372 z m 16.3579,-4.0278 c 14.105,-5.8935 17.5017,-23.2663 6.6673,-34.1007 -18.8071,-18.8071 -47.9739,7.9015 -30.4385,27.8731 6.6086,7.5269 15.246,9.7896 23.7712,6.2276 z M 805.06211,945.9937 c -26.85555,-8.51581 -22.01261,-48.22135 5.86184,-48.05903 30.52787,0.17777 32.69361,44.71429 2.36032,48.53812 -2.64122,0.33295 -6.34118,0.11737 -8.22216,-0.47909 z m 14.41713,-4.24885 c 14.10498,-5.89345 17.50168,-23.26628 6.6673,-34.10067 -18.80709,-18.80709 -47.9739,7.90152 -30.43857,27.87316 6.60863,7.52681 15.24599,9.7896 23.77127,6.22751 z m 245.32506,3.63019 c -26.2341,-9.64648 -20.296,-47.27859 7.4859,-47.44037 12.6293,-0.0735 24.3169,11.58139 24.3169,24.24898 0,15.7497 -17.4448,28.47089 -31.8028,23.19139 z m 14.6749,-3.63019 c 14.105,-5.89345 17.5017,-23.26628 6.6673,-34.10067 -18.8071,-18.80709 -47.9739,7.90152 -30.4385,27.87316 6.6086,7.52681 15.246,9.7896 23.7712,6.22751 z"
         id="path4303"
         inkscape:connector-curvature="0" />
      <path
         style="fill:#010101"
         d="m 908.48206,1395.9204 c -152.99553,-13.4057 -266.61215,-100.1141 -283.34175,-216.2367 -3.97616,-27.5991 -1.7804,-134.5401 3.28518,-160.0001 29.54298,-148.48463 240.24963,-237.95782 429.83141,-182.52092 106.19,31.05175 179.3233,98.69768 198.6783,183.77092 3.2133,14.1237 4.9255,142.6864 2.1809,163.7501 -7.7704,59.6341 -46.3997,116.2639 -104.384,153.0252 -4.125,2.6151 -9.0989,5.8721 -11.0532,7.2377 -18.5306,12.9489 -66.3096,31.8692 -107.0718,42.4001 -4.5202,1.1678 -40.19955,6.7056 -55.62504,8.6335 -10.13159,1.2664 -57.81401,1.227 -72.5,-0.06 z m 85.58516,-34.9052 c 32.66048,-4.5734 72.70128,-13.7334 82.13518,-18.7896 2.6084,-1.3981 5.6317,-2.5419 6.7184,-2.5419 3.7745,0 47.6382,-22.7247 60.3128,-31.2465 57.8306,-38.8827 88.4213,-86.4459 90.4467,-140.6285 l 0.6542,-17.5 -5.9464,8.75 c -67.0441,98.6546 -218.771,151.1281 -359.28104,124.2544 -26.24914,-5.0204 -32.2237,-6.524 -51.875,-13.0548 -72.95343,-24.2451 -126.84479,-62.0318 -160.08181,-112.2439 -8.24466,-12.4554 -9.05951,-12.3076 -9.19796,1.6693 -0.70418,71.0841 63.12597,148.2602 146.77977,177.4692 3.4375,1.2002 8.90136,3.3904 12.14191,4.867 16.70528,7.6119 65.79185,17.9276 101.99875,21.4353 18.09006,1.7525 64.81012,0.4145 85.1945,-2.44 z m 71.75558,-122.4167 c 3.3498,-0.8404 8.8155,-2.9088 12.1459,-4.5964 3.3304,-1.6877 6.7771,-3.0809 7.6593,-3.096 2.1055,-0.036 21.4614,-9.8352 40.3693,-20.4371 5.7827,-3.2424 20.3407,-13.39 24.9844,-17.4151 l 4.9995,-4.3337 -6.6299,-7.6226 -6.6299,-7.6226 8.3967,-7.8332 c 33.382,-31.1415 50.0713,-61.0799 57.6732,-103.4581 l 1.0091,-5.625 9.3408,-0.625 9.3409,-0.625 0.057,-14.3559 c 0.069,-17.4309 -4.2628,-37.5379 -11.9077,-55.27041 -6.1847,-14.34553 -6.3489,-14.49477 -16.7549,-15.22838 -4.7331,-0.33369 -8.9962,-1.0654 -9.4735,-1.62602 -0.4774,-0.56064 -4.0186,-5.8284 -7.8694,-11.70614 -17.0694,-26.05409 -45.1289,-51.80965 -74.3638,-68.25787 -8.6988,-4.8941 -8.9239,-5.35868 -5.1588,-10.64617 3.3085,-4.6465 3.41,-4.55447 -13.2787,-12.04954 -16.4391,-7.38294 -39.4671,-15.0957 -60,-20.09574 l -15,-3.6527 -4.5785,4.40414 -4.5785,4.40414 -17.29651,-2.2691 c -32.70694,-4.29075 -88.51405,-2.68626 -114.79653,3.30048 -4.72815,1.077 -5.2218,0.90201 -9.07933,-3.21846 -4.86218,-5.19361 -5.19862,-5.21429 -20.06053,-1.23266 -24.95788,6.68641 -72.73514,25.55702 -72.73514,28.72824 0,0.42721 1.26563,3.0663 2.8125,5.86464 1.62233,2.93483 2.27365,5.29103 1.53914,5.56793 -22.05083,8.31289 -62.69691,48.18016 -82.30125,80.72428 -1.89823,3.15116 -2.70811,3.41003 -11.73219,3.75 l -9.6932,0.36519 -3.18738,6.25 c -9.00696,17.66137 -14.75515,41.94805 -14.49672,61.25005 l 0.1841,13.75 9.95828,0.625 9.95829,0.625 0.85321,4.375 c 8.22701,42.1857 20.73381,66.6384 49.05202,95.9043 l 13.57503,14.0293 -6.38592,7.6425 c -7.75727,9.2837 -7.73934,8.714 -0.44841,14.2475 21.59091,16.3864 34.15934,23.6087 69.6875,40.0453 7.33076,3.3915 28.66585,10.6311 31.32988,10.6311 0.73783,0 4.01197,-3.7122 7.27586,-8.2492 4.97891,-6.9211 6.37386,-8.1226 8.6643,-7.4629 48.47532,13.9635 118.95211,16.0804 167.8102,5.0405 7.4933,-1.6931 14.0575,-3.0784 14.587,-3.0784 0.5296,0 3.5497,3.5156 6.7113,7.8125 7.3683,10.014 7.0443,9.8738 15.3284,6.6344 3.8737,-1.5147 9.7839,-3.4416 13.1338,-4.2821 z m -209.21574,-38.3139 c -2.40625,-0.9108 -13.375,-4.8615 -24.375,-8.7793 -11,-3.9177 -23.23487,-8.4689 -27.1886,-10.1137 -6.75559,-2.8104 -7.46126,-2.8767 -11.71515,-1.0993 -33.68979,14.0765 -67.50162,-23.4672 -50.26286,-55.8104 13.57582,-25.4709 49.06484,-27.6076 67.37835,-4.0567 l 5.74147,7.3835 19.2734,7.1104 c 24.23729,8.9418 24.26793,8.9427 30.54804,0.8654 2.73645,-3.5196 9.47535,-11.9008 14.97535,-18.6249 18.8692,-23.0689 24.375,-30.2518 24.375,-31.7996 0,-1.9798 -5.02279,-9.2715 -13.75,-19.961 -15.78411,-19.3332 -20.976,-25.8317 -27.5,-34.4206 -3.78125,-4.9781 -12.50076,-15.8841 -19.3767,-24.2354 -6.87593,-8.35141 -16.10654,-19.9656 -20.51246,-25.80935 -11.90809,-15.79415 -16.21951,-20 -20.50205,-20 -21.87864,0 -38.86524,-34.28314 -27.80303,-56.11336 17.88755,-35.29939 74.25248,-25.26617 74.48854,13.25931 0.0506,8.25502 0.56701,9.33747 9.9557,20.86692 16.60188,20.38737 21.0632,25.96657 28.125,35.17219 4.125,5.37728 11.45008,14.59481 16.27794,20.4834 4.82786,5.88859 9.89036,12.17469 11.25,13.96909 15.18731,20.0435 23.60374,29.8625 25.59706,29.8625 1.99332,0 10.40975,-9.819 25.59706,-29.8625 1.35964,-1.7944 6.42214,-8.0805 11.25,-13.96909 4.82786,-5.88859 12.15294,-15.10612 16.27794,-20.4834 7.06184,-9.20562 11.52314,-14.78482 28.12504,-35.17219 9.3886,-11.52945 9.9051,-12.6119 9.9557,-20.86692 0.236,-38.52548 56.6009,-48.5587 74.4885,-13.25931 11.1056,21.91585 -5.8971,56.11336 -27.899,56.11336 -4.1737,0 -8.5915,4.32985 -20.4061,20 -4.4059,5.84375 -13.6365,17.45794 -20.5124,25.80935 -6.876,8.3513 -15.5955,19.2573 -19.3767,24.2354 -6.524,8.589 -11.7159,15.0874 -27.50004,34.4206 -8.72721,10.6895 -13.75,17.9812 -13.75,19.961 0,1.5478 5.5058,8.7307 24.37504,31.7996 5.5,6.7241 12.2389,15.1053 14.9753,18.6249 6.2801,8.0773 6.3108,8.0764 30.548,-0.8654 l 19.2734,-7.1104 5.7415,-7.3835 c 18.3135,-23.5509 53.8025,-21.4142 67.3784,4.0567 17.2391,32.3439 -16.5731,69.8869 -50.264,55.81 -4.077,-1.7035 -4.9942,-1.6918 -9.2151,0.1184 -6.4713,2.775 -40.217,15.1285 -51.2887,18.7755 -23.4162,7.7133 -32.09464,1.8966 -68.43335,-45.8678 -1.35603,-1.7824 -5.722,-7.548 -9.70219,-12.8125 -9.184,-12.1474 -10.0926,-12.1474 -19.2766,0 -3.98019,5.2645 -8.34616,11.0301 -9.70219,12.8125 -6.29873,8.2792 -28.57505,34.9936 -32.7602,39.287 -8.9854,9.2178 -21.26412,12.084 -32.89931,7.6797 z m 26.50862,-5.0455 c 3.20318,-2.2347 15.00685,-15.8242 29.28203,-33.7122 13.15361,-16.4825 25.10674,-31.3745 26.5625,-33.0932 l 2.64685,-3.125 2.64685,3.125 c 1.45576,1.7187 13.40889,16.6107 26.5625,33.0932 36.24219,45.4144 33.37719,44.4987 82.93329,26.5085 l 32.7677,-11.8956 6.3083,2.3969 c 36.6384,13.9216 66.6782,-33.5752 38.8409,-61.4126 -16.9265,-16.9265 -47.3273,-13.3884 -58.1842,6.7716 -1.3257,2.4617 -3.2744,4.8175 -4.3304,5.2352 -1.056,0.4177 -12.0274,4.4391 -24.381,8.9363 l -22.4611,8.1769 -3.1639,-4.1554 c -3.4643,-4.5498 -30.73934,-38.6963 -39.53264,-49.4921 -6.98279,-8.573 -8.70424,-4.6784 15.4312,-34.911 21.21524,-26.5746 57.64664,-72.37178 70.75094,-88.93945 4.4405,-5.61409 8.0812,-9.0625 9.5679,-9.0625 22.112,0 39.4598,-28.37834 31.0646,-50.81672 -14.2465,-38.07698 -72.3209,-27.38144 -72.3209,13.31929 0,6.10988 -0.1812,6.3856 -22.8125,34.7251 -12.54691,15.71148 -32.09379,40.28463 -43.43754,54.60698 -11.34375,14.3224 -21.89062,27.5031 -23.4375,29.2905 l -2.8125,3.2499 -2.8125,-3.2499 c -1.54687,-1.7874 -12.09375,-14.9681 -23.4375,-29.2905 -11.34375,-14.32235 -30.89062,-38.8955 -43.4375,-54.60698 -22.63136,-28.3395 -22.8125,-28.61522 -22.8125,-34.7251 0,-40.70073 -58.07449,-51.39627 -72.32091,-13.31929 -8.39528,22.43838 8.95257,50.81672 31.06456,50.81672 1.48669,0 5.1274,3.44841 9.56789,9.0625 13.10427,16.56767 49.53574,62.36485 70.75096,88.93945 24.13544,30.2326 22.41399,26.338 15.4312,34.911 -8.7933,10.7958 -36.06835,44.9423 -39.5326,49.4921 l -3.16391,4.1554 -22.46109,-8.1769 c -12.35361,-4.4972 -23.32509,-8.5186 -24.38109,-8.9363 -1.05598,-0.4177 -3.00465,-2.7735 -4.33035,-5.2352 -10.85687,-20.16 -41.25766,-23.6981 -58.18418,-6.7716 -27.83748,27.8375 2.20246,75.3341 38.84122,61.4125 l 6.30851,-2.397 32.14239,11.788 c 37.59695,13.7885 43.79533,14.6235 54.27602,7.3115 z M 771.31211,1167.189 c -26.5502,-7.9944 -22.14907,-46.8387 5.3069,-46.8387 15.73371,0 27.30647,14.019 23.62899,28.6236 -3.25673,12.9336 -17.24076,21.7366 -28.93589,18.2151 z m 13.16713,-4.1941 c 14.10498,-5.8935 17.50168,-23.2663 6.6673,-34.1007 -18.80709,-18.8071 -47.9739,7.9015 -30.43857,27.8731 6.60863,7.5269 15.24599,9.7896 23.77127,6.2276 z m 314.77216,3.6021 c -19.7637,-6.3066 -22.8322,-33.0251 -4.9544,-43.1404 16.0822,-9.0993 35.3934,1.807 35.3934,19.989 0,16.4682 -15.1862,28.0186 -30.439,23.1514 z m 15.2278,-3.6021 c 14.105,-5.8935 17.5017,-23.2663 6.6673,-34.1007 -18.8071,-18.8071 -47.9739,7.9015 -30.4385,27.8731 6.6086,7.5269 15.246,9.7896 23.7712,6.2276 z M 803.99902,944.739 c -14.27906,-4.32728 -20.83957,-21.19484 -13.26841,-34.11406 14.03764,-23.9534 50.74113,-8.63334 43.32144,18.0824 -3.4403,12.38732 -17.43836,19.85453 -30.05303,16.03166 z m 15.48022,-2.99415 c 14.10498,-5.89345 17.50168,-23.26628 6.6673,-34.10067 -18.80709,-18.80709 -47.9739,7.90152 -30.43857,27.87316 6.60863,7.52681 15.24599,9.7896 23.77127,6.22751 z m 242.70106,1.9165 c -6.1967,-2.9096 -11.3018,-8.77378 -13.0182,-14.95401 -7.4197,-26.71574 29.2838,-42.0358 43.3214,-18.0824 11.3972,19.44792 -9.8681,42.63135 -30.3032,33.03641 z m 17.2989,-1.9165 c 14.105,-5.89345 17.5017,-23.26628 6.6673,-34.10067 -18.8071,-18.80709 -47.9739,7.90152 -30.4385,27.87316 6.6086,7.52681 15.246,9.7896 23.7712,6.22751 z"
         id="path4301"
         inkscape:connector-curvature="0" />
    </g>
  </g>
</svg>
